<mxfile host="app.diagrams.net" modified="2023-10-31T07:41:30.508Z" agent="Mozilla/5.0 (Macintosh; Intel Mac OS X 10_15_7) AppleWebKit/537.36 (KHTML, like Gecko) Chrome/117.0.0.0 Safari/537.36" etag="FaumXl-SpJ7sESaumjKD" version="22.0.8" type="github">
  <diagram name="第 1 页" id="8FPrmTddwd09_mkY2v40">
    <mxGraphModel dx="2040" dy="789" grid="1" gridSize="10" guides="1" tooltips="1" connect="1" arrows="1" fold="1" page="1" pageScale="1" pageWidth="827" pageHeight="1169" math="0" shadow="0">
      <root>
        <mxCell id="0" />
        <mxCell id="1" parent="0" />
        <mxCell id="2IVX20pnwpZ9648MfqDt-58" value="" style="rounded=0;whiteSpace=wrap;html=1;dashed=1;" vertex="1" parent="1">
          <mxGeometry x="191.5" y="748.5" width="100" height="20" as="geometry" />
        </mxCell>
        <mxCell id="2IVX20pnwpZ9648MfqDt-52" value="" style="rounded=0;whiteSpace=wrap;html=1;fillColor=none;" vertex="1" parent="1">
          <mxGeometry x="191.5" y="748.5" width="200" height="20" as="geometry" />
        </mxCell>
        <mxCell id="2IVX20pnwpZ9648MfqDt-19" style="edgeStyle=orthogonalEdgeStyle;orthogonalLoop=1;jettySize=auto;html=1;exitX=0.5;exitY=1;exitDx=0;exitDy=0;entryX=0.5;entryY=1;entryDx=0;entryDy=0;curved=1;fillColor=#dae8fc;strokeColor=#6c8ebf;" edge="1" parent="1" source="2IVX20pnwpZ9648MfqDt-5" target="2IVX20pnwpZ9648MfqDt-9">
          <mxGeometry relative="1" as="geometry" />
        </mxCell>
        <mxCell id="2IVX20pnwpZ9648MfqDt-20" style="edgeStyle=orthogonalEdgeStyle;orthogonalLoop=1;jettySize=auto;html=1;exitX=0.5;exitY=1;exitDx=0;exitDy=0;entryX=0.5;entryY=1;entryDx=0;entryDy=0;curved=1;fillColor=#dae8fc;strokeColor=#6c8ebf;" edge="1" parent="1" source="2IVX20pnwpZ9648MfqDt-5" target="2IVX20pnwpZ9648MfqDt-12">
          <mxGeometry relative="1" as="geometry">
            <Array as="points">
              <mxPoint x="240" y="360" />
              <mxPoint x="600" y="360" />
            </Array>
          </mxGeometry>
        </mxCell>
        <mxCell id="2IVX20pnwpZ9648MfqDt-5" value="" style="rounded=1;whiteSpace=wrap;html=1;" vertex="1" parent="1">
          <mxGeometry x="180" y="220" width="120" height="100" as="geometry" />
        </mxCell>
        <mxCell id="2IVX20pnwpZ9648MfqDt-6" value="node1" style="text;html=1;strokeColor=none;fillColor=none;align=center;verticalAlign=middle;whiteSpace=wrap;rounded=0;" vertex="1" parent="1">
          <mxGeometry x="190" y="220" width="60" height="30" as="geometry" />
        </mxCell>
        <mxCell id="2IVX20pnwpZ9648MfqDt-21" style="edgeStyle=orthogonalEdgeStyle;orthogonalLoop=1;jettySize=auto;html=1;exitX=0.5;exitY=0;exitDx=0;exitDy=0;entryX=0.5;entryY=0;entryDx=0;entryDy=0;curved=1;fillColor=#f8cecc;strokeColor=#b85450;" edge="1" parent="1" source="2IVX20pnwpZ9648MfqDt-9" target="2IVX20pnwpZ9648MfqDt-5">
          <mxGeometry relative="1" as="geometry" />
        </mxCell>
        <mxCell id="2IVX20pnwpZ9648MfqDt-9" value="" style="rounded=1;whiteSpace=wrap;html=1;" vertex="1" parent="1">
          <mxGeometry x="360" y="220" width="120" height="100" as="geometry" />
        </mxCell>
        <mxCell id="2IVX20pnwpZ9648MfqDt-10" value="node2" style="text;html=1;strokeColor=none;fillColor=none;align=center;verticalAlign=middle;whiteSpace=wrap;rounded=0;" vertex="1" parent="1">
          <mxGeometry x="370" y="223" width="60" height="30" as="geometry" />
        </mxCell>
        <mxCell id="2IVX20pnwpZ9648MfqDt-12" value="" style="rounded=1;whiteSpace=wrap;html=1;" vertex="1" parent="1">
          <mxGeometry x="540" y="220" width="120" height="100" as="geometry" />
        </mxCell>
        <mxCell id="2IVX20pnwpZ9648MfqDt-22" style="edgeStyle=orthogonalEdgeStyle;orthogonalLoop=1;jettySize=auto;html=1;exitX=0.75;exitY=0;exitDx=0;exitDy=0;curved=1;fillColor=#f8cecc;strokeColor=#b85450;" edge="1" parent="1" source="2IVX20pnwpZ9648MfqDt-13">
          <mxGeometry relative="1" as="geometry">
            <mxPoint x="240" y="220" as="targetPoint" />
            <Array as="points">
              <mxPoint x="595" y="180" />
              <mxPoint x="240" y="180" />
            </Array>
          </mxGeometry>
        </mxCell>
        <mxCell id="2IVX20pnwpZ9648MfqDt-13" value="node3" style="text;html=1;strokeColor=none;fillColor=none;align=center;verticalAlign=middle;whiteSpace=wrap;rounded=0;" vertex="1" parent="1">
          <mxGeometry x="550" y="220" width="60" height="30" as="geometry" />
        </mxCell>
        <mxCell id="2IVX20pnwpZ9648MfqDt-16" style="edgeStyle=orthogonalEdgeStyle;rounded=0;orthogonalLoop=1;jettySize=auto;html=1;exitX=1;exitY=0.5;exitDx=0;exitDy=0;entryX=0;entryY=0.5;entryDx=0;entryDy=0;" edge="1" parent="1" target="2IVX20pnwpZ9648MfqDt-5">
          <mxGeometry relative="1" as="geometry">
            <mxPoint x="70" y="270" as="sourcePoint" />
          </mxGeometry>
        </mxCell>
        <mxCell id="2IVX20pnwpZ9648MfqDt-17" value="请求数据" style="edgeLabel;html=1;align=center;verticalAlign=middle;resizable=0;points=[];" vertex="1" connectable="0" parent="2IVX20pnwpZ9648MfqDt-16">
          <mxGeometry y="-1" relative="1" as="geometry">
            <mxPoint as="offset" />
          </mxGeometry>
        </mxCell>
        <mxCell id="2IVX20pnwpZ9648MfqDt-18" value="Client" style="shape=umlActor;verticalLabelPosition=bottom;verticalAlign=top;html=1;outlineConnect=0;" vertex="1" parent="1">
          <mxGeometry x="30" y="240" width="30" height="60" as="geometry" />
        </mxCell>
        <mxCell id="2IVX20pnwpZ9648MfqDt-26" style="edgeStyle=orthogonalEdgeStyle;rounded=0;orthogonalLoop=1;jettySize=auto;html=1;exitX=1;exitY=0;exitDx=0;exitDy=0;entryX=0;entryY=0;entryDx=0;entryDy=0;fillColor=#dae8fc;strokeColor=#6c8ebf;" edge="1" parent="1" source="2IVX20pnwpZ9648MfqDt-24" target="2IVX20pnwpZ9648MfqDt-25">
          <mxGeometry relative="1" as="geometry">
            <Array as="points">
              <mxPoint x="80" y="170" />
              <mxPoint x="80" y="170" />
            </Array>
          </mxGeometry>
        </mxCell>
        <mxCell id="2IVX20pnwpZ9648MfqDt-27" style="edgeStyle=orthogonalEdgeStyle;rounded=0;orthogonalLoop=1;jettySize=auto;html=1;exitX=1;exitY=0.25;exitDx=0;exitDy=0;entryX=0;entryY=0.25;entryDx=0;entryDy=0;fillColor=#f8cecc;strokeColor=#b85450;" edge="1" parent="1" source="2IVX20pnwpZ9648MfqDt-24" target="2IVX20pnwpZ9648MfqDt-25">
          <mxGeometry relative="1" as="geometry" />
        </mxCell>
        <mxCell id="2IVX20pnwpZ9648MfqDt-24" value="" style="rounded=0;whiteSpace=wrap;html=1;fillColor=none;strokeColor=none;" vertex="1" parent="1">
          <mxGeometry x="-20" y="170" width="70" height="70" as="geometry" />
        </mxCell>
        <mxCell id="2IVX20pnwpZ9648MfqDt-25" value="" style="rounded=0;whiteSpace=wrap;html=1;fillColor=none;strokeColor=none;" vertex="1" parent="1">
          <mxGeometry x="100" y="170" width="70" height="70" as="geometry" />
        </mxCell>
        <mxCell id="2IVX20pnwpZ9648MfqDt-29" value="从其它分片查数据" style="text;html=1;strokeColor=none;fillColor=none;align=left;verticalAlign=middle;whiteSpace=wrap;rounded=0;" vertex="1" parent="1">
          <mxGeometry x="100" y="155" width="110" height="30" as="geometry" />
        </mxCell>
        <mxCell id="2IVX20pnwpZ9648MfqDt-30" value="汇总数据" style="text;html=1;strokeColor=none;fillColor=none;align=left;verticalAlign=middle;whiteSpace=wrap;rounded=0;" vertex="1" parent="1">
          <mxGeometry x="100" y="174" width="110" height="30" as="geometry" />
        </mxCell>
        <mxCell id="2IVX20pnwpZ9648MfqDt-33" value="&lt;font style=&quot;font-size: 10px;&quot;&gt;from=10000,size=10&lt;/font&gt;" style="text;html=1;strokeColor=none;fillColor=none;align=center;verticalAlign=middle;whiteSpace=wrap;rounded=0;fontSize=10;" vertex="1" parent="1">
          <mxGeometry x="275" y="317" width="110" height="26" as="geometry" />
        </mxCell>
        <mxCell id="2IVX20pnwpZ9648MfqDt-34" value="&lt;font style=&quot;font-size: 10px;&quot;&gt;from=10000,size=10&lt;/font&gt;" style="text;html=1;strokeColor=none;fillColor=none;align=center;verticalAlign=middle;whiteSpace=wrap;rounded=0;fontSize=10;" vertex="1" parent="1">
          <mxGeometry x="360" y="360" width="110" height="26" as="geometry" />
        </mxCell>
        <mxCell id="2IVX20pnwpZ9648MfqDt-35" value="共10010" style="text;html=1;strokeColor=none;fillColor=none;align=center;verticalAlign=middle;whiteSpace=wrap;rounded=0;fontSize=10;" vertex="1" parent="1">
          <mxGeometry x="359" y="155" width="110" height="26" as="geometry" />
        </mxCell>
        <mxCell id="2IVX20pnwpZ9648MfqDt-36" value="&lt;font style=&quot;font-size: 10px;&quot;&gt;共10010&lt;/font&gt;" style="text;html=1;strokeColor=none;fillColor=none;align=center;verticalAlign=middle;whiteSpace=wrap;rounded=0;fontSize=10;" vertex="1" parent="1">
          <mxGeometry x="280" y="197" width="110" height="26" as="geometry" />
        </mxCell>
        <mxCell id="2IVX20pnwpZ9648MfqDt-37" value="shard 1" style="ellipse;whiteSpace=wrap;html=1;" vertex="1" parent="1">
          <mxGeometry x="230" y="280" width="60" height="37" as="geometry" />
        </mxCell>
        <mxCell id="2IVX20pnwpZ9648MfqDt-38" value="shard 2" style="ellipse;whiteSpace=wrap;html=1;" vertex="1" parent="1">
          <mxGeometry x="409" y="280" width="60" height="37" as="geometry" />
        </mxCell>
        <mxCell id="2IVX20pnwpZ9648MfqDt-39" value="shard 3" style="ellipse;whiteSpace=wrap;html=1;" vertex="1" parent="1">
          <mxGeometry x="600" y="280" width="60" height="37" as="geometry" />
        </mxCell>
        <mxCell id="2IVX20pnwpZ9648MfqDt-41" value="对30030条数据排序取值" style="text;html=1;strokeColor=none;fillColor=none;align=center;verticalAlign=middle;whiteSpace=wrap;rounded=0;fontColor=#FF3333;" vertex="1" parent="1">
          <mxGeometry x="190" y="250" width="80" height="30" as="geometry" />
        </mxCell>
        <mxCell id="2IVX20pnwpZ9648MfqDt-42" value="" style="rounded=0;whiteSpace=wrap;html=1;" vertex="1" parent="1">
          <mxGeometry x="203" y="509.5" width="450" height="20" as="geometry" />
        </mxCell>
        <mxCell id="2IVX20pnwpZ9648MfqDt-45" style="edgeStyle=orthogonalEdgeStyle;rounded=0;orthogonalLoop=1;jettySize=auto;html=1;exitX=0.5;exitY=1;exitDx=0;exitDy=0;entryX=0;entryY=0;entryDx=0;entryDy=0;" edge="1" parent="1" source="2IVX20pnwpZ9648MfqDt-43" target="2IVX20pnwpZ9648MfqDt-42">
          <mxGeometry relative="1" as="geometry" />
        </mxCell>
        <mxCell id="2IVX20pnwpZ9648MfqDt-43" value="start" style="text;html=1;strokeColor=none;fillColor=none;align=center;verticalAlign=middle;whiteSpace=wrap;rounded=0;" vertex="1" parent="1">
          <mxGeometry x="173" y="459.5" width="60" height="30" as="geometry" />
        </mxCell>
        <mxCell id="2IVX20pnwpZ9648MfqDt-46" style="edgeStyle=orthogonalEdgeStyle;rounded=0;orthogonalLoop=1;jettySize=auto;html=1;exitX=0.5;exitY=1;exitDx=0;exitDy=0;entryX=1;entryY=0;entryDx=0;entryDy=0;" edge="1" parent="1" source="2IVX20pnwpZ9648MfqDt-44" target="2IVX20pnwpZ9648MfqDt-42">
          <mxGeometry relative="1" as="geometry" />
        </mxCell>
        <mxCell id="2IVX20pnwpZ9648MfqDt-44" value="end" style="text;html=1;strokeColor=none;fillColor=none;align=center;verticalAlign=middle;whiteSpace=wrap;rounded=0;" vertex="1" parent="1">
          <mxGeometry x="623" y="459.5" width="60" height="30" as="geometry" />
        </mxCell>
        <mxCell id="2IVX20pnwpZ9648MfqDt-50" style="edgeStyle=orthogonalEdgeStyle;rounded=0;orthogonalLoop=1;jettySize=auto;html=1;exitX=0.5;exitY=1;exitDx=0;exitDy=0;entryX=1;entryY=0;entryDx=0;entryDy=0;" edge="1" parent="1" source="2IVX20pnwpZ9648MfqDt-51">
          <mxGeometry relative="1" as="geometry">
            <mxPoint x="653" y="595.5" as="targetPoint" />
          </mxGeometry>
        </mxCell>
        <mxCell id="2IVX20pnwpZ9648MfqDt-51" value="e_n" style="text;html=1;strokeColor=none;fillColor=none;align=center;verticalAlign=middle;whiteSpace=wrap;rounded=0;" vertex="1" parent="1">
          <mxGeometry x="623" y="555.5" width="60" height="20" as="geometry" />
        </mxCell>
        <mxCell id="2IVX20pnwpZ9648MfqDt-251" style="edgeStyle=orthogonalEdgeStyle;rounded=0;orthogonalLoop=1;jettySize=auto;html=1;exitX=0.5;exitY=1;exitDx=0;exitDy=0;entryX=0.5;entryY=1;entryDx=0;entryDy=0;" edge="1" parent="1" source="2IVX20pnwpZ9648MfqDt-57" target="2IVX20pnwpZ9648MfqDt-52">
          <mxGeometry relative="1" as="geometry" />
        </mxCell>
        <mxCell id="2IVX20pnwpZ9648MfqDt-57" value="剩余量不足，与右区间合并" style="text;html=1;strokeColor=none;fillColor=none;align=center;verticalAlign=middle;whiteSpace=wrap;rounded=0;" vertex="1" parent="1">
          <mxGeometry x="445.5" y="728.5" width="104.5" height="41.5" as="geometry" />
        </mxCell>
        <mxCell id="2IVX20pnwpZ9648MfqDt-64" style="edgeStyle=orthogonalEdgeStyle;rounded=0;orthogonalLoop=1;jettySize=auto;html=1;exitX=0.5;exitY=0;exitDx=0;exitDy=0;entryX=0;entryY=1;entryDx=0;entryDy=0;" edge="1" parent="1" source="2IVX20pnwpZ9648MfqDt-65">
          <mxGeometry relative="1" as="geometry">
            <mxPoint x="592" y="615.5" as="targetPoint" />
          </mxGeometry>
        </mxCell>
        <mxCell id="2IVX20pnwpZ9648MfqDt-65" value="s_n" style="text;html=1;strokeColor=none;fillColor=none;align=center;verticalAlign=middle;whiteSpace=wrap;rounded=0;" vertex="1" parent="1">
          <mxGeometry x="577" y="635.5" width="30" height="20" as="geometry" />
        </mxCell>
        <mxCell id="2IVX20pnwpZ9648MfqDt-72" style="edgeStyle=orthogonalEdgeStyle;rounded=0;orthogonalLoop=1;jettySize=auto;html=1;exitX=0.5;exitY=1;exitDx=0;exitDy=0;entryX=0;entryY=0;entryDx=0;entryDy=0;" edge="1" parent="1" source="2IVX20pnwpZ9648MfqDt-73">
          <mxGeometry relative="1" as="geometry">
            <mxPoint x="593" y="595.5" as="targetPoint" />
          </mxGeometry>
        </mxCell>
        <mxCell id="2IVX20pnwpZ9648MfqDt-73" value="e_n-1" style="text;html=1;strokeColor=none;fillColor=none;align=center;verticalAlign=middle;whiteSpace=wrap;rounded=0;" vertex="1" parent="1">
          <mxGeometry x="576" y="555.5" width="36" height="20" as="geometry" />
        </mxCell>
        <mxCell id="2IVX20pnwpZ9648MfqDt-78" value="数据" style="rounded=0;whiteSpace=wrap;html=1;" vertex="1" parent="1">
          <mxGeometry x="-475" y="445" width="90" height="190" as="geometry" />
        </mxCell>
        <mxCell id="2IVX20pnwpZ9648MfqDt-80" style="edgeStyle=orthogonalEdgeStyle;rounded=0;orthogonalLoop=1;jettySize=auto;html=1;exitX=1;exitY=0.5;exitDx=0;exitDy=0;entryX=0;entryY=0;entryDx=0;entryDy=0;" edge="1" parent="1" source="2IVX20pnwpZ9648MfqDt-79" target="2IVX20pnwpZ9648MfqDt-78">
          <mxGeometry relative="1" as="geometry" />
        </mxCell>
        <mxCell id="2IVX20pnwpZ9648MfqDt-79" value="start" style="text;html=1;strokeColor=none;fillColor=none;align=center;verticalAlign=middle;whiteSpace=wrap;rounded=0;" vertex="1" parent="1">
          <mxGeometry x="-550" y="430" width="40" height="30" as="geometry" />
        </mxCell>
        <mxCell id="2IVX20pnwpZ9648MfqDt-81" style="edgeStyle=orthogonalEdgeStyle;rounded=0;orthogonalLoop=1;jettySize=auto;html=1;exitX=1;exitY=0.5;exitDx=0;exitDy=0;entryX=0;entryY=0;entryDx=0;entryDy=0;" edge="1" parent="1" source="2IVX20pnwpZ9648MfqDt-82">
          <mxGeometry relative="1" as="geometry">
            <mxPoint x="-475" y="634" as="targetPoint" />
          </mxGeometry>
        </mxCell>
        <mxCell id="2IVX20pnwpZ9648MfqDt-82" value="end" style="text;html=1;strokeColor=none;fillColor=none;align=center;verticalAlign=middle;whiteSpace=wrap;rounded=0;" vertex="1" parent="1">
          <mxGeometry x="-550" y="619" width="40" height="30" as="geometry" />
        </mxCell>
        <mxCell id="2IVX20pnwpZ9648MfqDt-83" value="" style="rounded=0;whiteSpace=wrap;html=1;" vertex="1" parent="1">
          <mxGeometry x="-251" y="445.5" width="90" height="190" as="geometry" />
        </mxCell>
        <mxCell id="2IVX20pnwpZ9648MfqDt-90" value="num_1" style="rounded=0;whiteSpace=wrap;html=1;" vertex="1" parent="1">
          <mxGeometry x="-251" y="445.5" width="90" height="30" as="geometry" />
        </mxCell>
        <mxCell id="2IVX20pnwpZ9648MfqDt-93" value="e_1" style="text;html=1;strokeColor=none;fillColor=none;align=center;verticalAlign=middle;whiteSpace=wrap;rounded=0;" vertex="1" parent="1">
          <mxGeometry x="-135" y="452" width="24" height="20" as="geometry" />
        </mxCell>
        <mxCell id="2IVX20pnwpZ9648MfqDt-94" style="edgeStyle=orthogonalEdgeStyle;rounded=0;orthogonalLoop=1;jettySize=auto;html=1;entryX=1;entryY=0.118;entryDx=0;entryDy=0;entryPerimeter=0;" edge="1" parent="1">
          <mxGeometry relative="1" as="geometry">
            <mxPoint x="-135" y="463" as="sourcePoint" />
            <mxPoint x="-161" y="462.9200000000001" as="targetPoint" />
          </mxGeometry>
        </mxCell>
        <mxCell id="2IVX20pnwpZ9648MfqDt-95" value="num_2" style="rounded=0;whiteSpace=wrap;html=1;" vertex="1" parent="1">
          <mxGeometry x="-251" y="475.5" width="90" height="30" as="geometry" />
        </mxCell>
        <mxCell id="2IVX20pnwpZ9648MfqDt-102" value="..." style="rounded=0;whiteSpace=wrap;html=1;fontStyle=1" vertex="1" parent="1">
          <mxGeometry x="-251" y="505.5" width="90" height="30" as="geometry" />
        </mxCell>
        <mxCell id="2IVX20pnwpZ9648MfqDt-103" value=".&lt;br&gt;.&lt;br&gt;." style="text;html=1;strokeColor=none;fillColor=none;align=center;verticalAlign=middle;whiteSpace=wrap;rounded=0;fontStyle=1" vertex="1" parent="1">
          <mxGeometry x="-235" y="599" width="60" height="30" as="geometry" />
        </mxCell>
        <mxCell id="2IVX20pnwpZ9648MfqDt-104" value="..." style="rounded=0;whiteSpace=wrap;html=1;fontStyle=1" vertex="1" parent="1">
          <mxGeometry x="-251" y="535.5" width="90" height="30" as="geometry" />
        </mxCell>
        <mxCell id="2IVX20pnwpZ9648MfqDt-84" style="edgeStyle=orthogonalEdgeStyle;rounded=0;orthogonalLoop=1;jettySize=auto;html=1;entryX=0;entryY=0;entryDx=0;entryDy=0;jumpSize=4;" edge="1" parent="1">
          <mxGeometry relative="1" as="geometry">
            <mxPoint x="-275" y="460" as="sourcePoint" />
            <mxPoint x="-251" y="459.5" as="targetPoint" />
          </mxGeometry>
        </mxCell>
        <mxCell id="2IVX20pnwpZ9648MfqDt-85" value="s_1" style="text;html=1;strokeColor=none;fillColor=none;align=center;verticalAlign=middle;whiteSpace=wrap;rounded=0;container=0;" vertex="1" parent="1">
          <mxGeometry x="-295" y="444.5" width="24" height="30" as="geometry" />
        </mxCell>
        <mxCell id="2IVX20pnwpZ9648MfqDt-106" style="edgeStyle=orthogonalEdgeStyle;rounded=0;orthogonalLoop=1;jettySize=auto;html=1;entryX=0;entryY=0;entryDx=0;entryDy=0;jumpSize=4;" edge="1" parent="1">
          <mxGeometry relative="1" as="geometry">
            <mxPoint x="-275" y="489" as="sourcePoint" />
            <mxPoint x="-251" y="489" as="targetPoint" />
          </mxGeometry>
        </mxCell>
        <mxCell id="2IVX20pnwpZ9648MfqDt-107" value="s_2" style="text;html=1;strokeColor=none;fillColor=none;align=center;verticalAlign=middle;whiteSpace=wrap;rounded=0;container=0;" vertex="1" parent="1">
          <mxGeometry x="-295" y="473.5" width="24" height="30" as="geometry" />
        </mxCell>
        <mxCell id="2IVX20pnwpZ9648MfqDt-108" style="edgeStyle=orthogonalEdgeStyle;rounded=0;orthogonalLoop=1;jettySize=auto;html=1;entryX=0;entryY=0;entryDx=0;entryDy=0;jumpSize=4;" edge="1" parent="1">
          <mxGeometry relative="1" as="geometry">
            <mxPoint x="-275" y="519" as="sourcePoint" />
            <mxPoint x="-251" y="519" as="targetPoint" />
          </mxGeometry>
        </mxCell>
        <mxCell id="2IVX20pnwpZ9648MfqDt-109" value="s_3" style="text;html=1;strokeColor=none;fillColor=none;align=center;verticalAlign=middle;whiteSpace=wrap;rounded=0;container=0;" vertex="1" parent="1">
          <mxGeometry x="-295" y="503.5" width="24" height="30" as="geometry" />
        </mxCell>
        <mxCell id="2IVX20pnwpZ9648MfqDt-110" value="e_1" style="text;html=1;strokeColor=none;fillColor=none;align=center;verticalAlign=middle;whiteSpace=wrap;rounded=0;" vertex="1" parent="1">
          <mxGeometry x="-134" y="479" width="24" height="20" as="geometry" />
        </mxCell>
        <mxCell id="2IVX20pnwpZ9648MfqDt-111" style="edgeStyle=orthogonalEdgeStyle;rounded=0;orthogonalLoop=1;jettySize=auto;html=1;entryX=1;entryY=0.118;entryDx=0;entryDy=0;entryPerimeter=0;" edge="1" parent="1">
          <mxGeometry relative="1" as="geometry">
            <mxPoint x="-134" y="490" as="sourcePoint" />
            <mxPoint x="-160" y="489.9200000000001" as="targetPoint" />
          </mxGeometry>
        </mxCell>
        <mxCell id="2IVX20pnwpZ9648MfqDt-112" style="edgeStyle=orthogonalEdgeStyle;rounded=0;orthogonalLoop=1;jettySize=auto;html=1;exitX=0.5;exitY=0;exitDx=0;exitDy=0;entryX=0;entryY=1;entryDx=0;entryDy=0;" edge="1" parent="1" source="2IVX20pnwpZ9648MfqDt-113">
          <mxGeometry relative="1" as="geometry">
            <mxPoint x="532" y="615.5" as="targetPoint" />
          </mxGeometry>
        </mxCell>
        <mxCell id="2IVX20pnwpZ9648MfqDt-113" value="s_n-1" style="text;html=1;strokeColor=none;fillColor=none;align=center;verticalAlign=middle;whiteSpace=wrap;rounded=0;" vertex="1" parent="1">
          <mxGeometry x="514" y="635.5" width="35" height="20" as="geometry" />
        </mxCell>
        <mxCell id="2IVX20pnwpZ9648MfqDt-114" value="" style="rounded=0;whiteSpace=wrap;html=1;" vertex="1" parent="1">
          <mxGeometry x="202.5" y="595.5" width="450" height="20" as="geometry" />
        </mxCell>
        <mxCell id="2IVX20pnwpZ9648MfqDt-117" value="num_1" style="rounded=0;whiteSpace=wrap;html=1;" vertex="1" parent="1">
          <mxGeometry x="202.5" y="595.5" width="60" height="20" as="geometry" />
        </mxCell>
        <mxCell id="2IVX20pnwpZ9648MfqDt-118" style="edgeStyle=orthogonalEdgeStyle;rounded=0;orthogonalLoop=1;jettySize=auto;html=1;exitX=0.5;exitY=0;exitDx=0;exitDy=0;entryX=0;entryY=1;entryDx=0;entryDy=0;" edge="1" parent="1" source="2IVX20pnwpZ9648MfqDt-119" target="2IVX20pnwpZ9648MfqDt-117">
          <mxGeometry relative="1" as="geometry" />
        </mxCell>
        <mxCell id="2IVX20pnwpZ9648MfqDt-119" value="s_1" style="text;html=1;strokeColor=none;fillColor=none;align=center;verticalAlign=middle;whiteSpace=wrap;rounded=0;" vertex="1" parent="1">
          <mxGeometry x="187.5" y="635.5" width="30" height="20" as="geometry" />
        </mxCell>
        <mxCell id="2IVX20pnwpZ9648MfqDt-120" style="edgeStyle=orthogonalEdgeStyle;rounded=0;orthogonalLoop=1;jettySize=auto;html=1;exitX=0.5;exitY=0;exitDx=0;exitDy=0;entryX=0;entryY=1;entryDx=0;entryDy=0;" edge="1" parent="1" source="2IVX20pnwpZ9648MfqDt-121">
          <mxGeometry relative="1" as="geometry">
            <mxPoint x="262.5" y="615.5" as="targetPoint" />
          </mxGeometry>
        </mxCell>
        <mxCell id="2IVX20pnwpZ9648MfqDt-121" value="s_2" style="text;html=1;strokeColor=none;fillColor=none;align=center;verticalAlign=middle;whiteSpace=wrap;rounded=0;" vertex="1" parent="1">
          <mxGeometry x="247.5" y="635.5" width="30" height="20" as="geometry" />
        </mxCell>
        <mxCell id="2IVX20pnwpZ9648MfqDt-122" value="num_2" style="rounded=0;whiteSpace=wrap;html=1;" vertex="1" parent="1">
          <mxGeometry x="262.5" y="595.5" width="60" height="20" as="geometry" />
        </mxCell>
        <mxCell id="2IVX20pnwpZ9648MfqDt-123" style="edgeStyle=orthogonalEdgeStyle;rounded=0;orthogonalLoop=1;jettySize=auto;html=1;exitX=0.5;exitY=1;exitDx=0;exitDy=0;entryX=0;entryY=0;entryDx=0;entryDy=0;" edge="1" parent="1" source="2IVX20pnwpZ9648MfqDt-124">
          <mxGeometry relative="1" as="geometry">
            <mxPoint x="262.5" y="595.5" as="targetPoint" />
          </mxGeometry>
        </mxCell>
        <mxCell id="2IVX20pnwpZ9648MfqDt-124" value="e_1" style="text;html=1;strokeColor=none;fillColor=none;align=center;verticalAlign=middle;whiteSpace=wrap;rounded=0;" vertex="1" parent="1">
          <mxGeometry x="252.5" y="555.5" width="20" height="20" as="geometry" />
        </mxCell>
        <mxCell id="2IVX20pnwpZ9648MfqDt-125" style="edgeStyle=orthogonalEdgeStyle;rounded=0;orthogonalLoop=1;jettySize=auto;html=1;exitX=0.5;exitY=1;exitDx=0;exitDy=0;entryX=0;entryY=0;entryDx=0;entryDy=0;" edge="1" parent="1" source="2IVX20pnwpZ9648MfqDt-126">
          <mxGeometry relative="1" as="geometry">
            <mxPoint x="322.5" y="595.5" as="targetPoint" />
          </mxGeometry>
        </mxCell>
        <mxCell id="2IVX20pnwpZ9648MfqDt-126" value="e_2" style="text;html=1;strokeColor=none;fillColor=none;align=center;verticalAlign=middle;whiteSpace=wrap;rounded=0;" vertex="1" parent="1">
          <mxGeometry x="312.5" y="555.5" width="20" height="20" as="geometry" />
        </mxCell>
        <mxCell id="2IVX20pnwpZ9648MfqDt-130" value="&lt;b style=&quot;font-size: 12px;&quot;&gt;......&lt;/b&gt;" style="text;html=1;strokeColor=none;fillColor=none;align=center;verticalAlign=middle;whiteSpace=wrap;rounded=0;fontSize=12;" vertex="1" parent="1">
          <mxGeometry x="430" y="591.5" width="60" height="30" as="geometry" />
        </mxCell>
        <mxCell id="2IVX20pnwpZ9648MfqDt-133" value="" style="rounded=0;whiteSpace=wrap;html=1;" vertex="1" parent="1">
          <mxGeometry x="532.5" y="595.5" width="60" height="20" as="geometry" />
        </mxCell>
        <mxCell id="2IVX20pnwpZ9648MfqDt-142" style="edgeStyle=orthogonalEdgeStyle;rounded=0;orthogonalLoop=1;jettySize=auto;html=1;exitX=0.5;exitY=1;exitDx=0;exitDy=0;entryX=0;entryY=0.5;entryDx=0;entryDy=0;" edge="1" parent="1" source="2IVX20pnwpZ9648MfqDt-136" target="2IVX20pnwpZ9648MfqDt-138">
          <mxGeometry relative="1" as="geometry" />
        </mxCell>
        <mxCell id="2IVX20pnwpZ9648MfqDt-136" value="..." style="rounded=0;whiteSpace=wrap;html=1;" vertex="1" parent="1">
          <mxGeometry x="322.5" y="595.5" width="60" height="20" as="geometry" />
        </mxCell>
        <mxCell id="2IVX20pnwpZ9648MfqDt-138" value="num_1" style="rounded=0;whiteSpace=wrap;html=1;" vertex="1" parent="1">
          <mxGeometry x="399" y="655.5" width="60" height="20" as="geometry" />
        </mxCell>
        <mxCell id="2IVX20pnwpZ9648MfqDt-139" value="num_2" style="rounded=0;whiteSpace=wrap;html=1;" vertex="1" parent="1">
          <mxGeometry x="459" y="655.5" width="60" height="20" as="geometry" />
        </mxCell>
        <mxCell id="2IVX20pnwpZ9648MfqDt-140" value="" style="rounded=0;whiteSpace=wrap;html=1;" vertex="1" parent="1">
          <mxGeometry x="578.5" y="655.5" width="60" height="20" as="geometry" />
        </mxCell>
        <mxCell id="2IVX20pnwpZ9648MfqDt-141" value="..." style="rounded=0;whiteSpace=wrap;html=1;" vertex="1" parent="1">
          <mxGeometry x="519" y="655.5" width="60" height="20" as="geometry" />
        </mxCell>
        <mxCell id="2IVX20pnwpZ9648MfqDt-147" value="拆分子区间" style="text;html=1;strokeColor=none;fillColor=none;align=center;verticalAlign=middle;whiteSpace=wrap;rounded=0;" vertex="1" parent="1">
          <mxGeometry x="312" y="630.5" width="40" height="30" as="geometry" />
        </mxCell>
        <mxCell id="2IVX20pnwpZ9648MfqDt-203" style="edgeStyle=orthogonalEdgeStyle;rounded=0;orthogonalLoop=1;jettySize=auto;html=1;exitX=0.5;exitY=1;exitDx=0;exitDy=0;entryX=0.5;entryY=0;entryDx=0;entryDy=0;shape=flexArrow;" edge="1" parent="1" source="2IVX20pnwpZ9648MfqDt-200" target="2IVX20pnwpZ9648MfqDt-202">
          <mxGeometry relative="1" as="geometry" />
        </mxCell>
        <mxCell id="2IVX20pnwpZ9648MfqDt-200" value="初始区间" style="rounded=0;whiteSpace=wrap;html=1;" vertex="1" parent="1">
          <mxGeometry x="60" y="470.5" width="100" height="50" as="geometry" />
        </mxCell>
        <mxCell id="2IVX20pnwpZ9648MfqDt-201" value="拆分区间" style="rounded=0;whiteSpace=wrap;html=1;" vertex="1" parent="1">
          <mxGeometry x="60" y="591.5" width="100" height="50" as="geometry" />
        </mxCell>
        <mxCell id="2IVX20pnwpZ9648MfqDt-202" value="结果区间" style="rounded=0;whiteSpace=wrap;html=1;" vertex="1" parent="1">
          <mxGeometry x="60" y="733.5" width="100" height="50" as="geometry" />
        </mxCell>
        <mxCell id="2IVX20pnwpZ9648MfqDt-205" value="" style="endArrow=none;html=1;rounded=0;dashed=1;" edge="1" parent="1">
          <mxGeometry width="50" height="50" relative="1" as="geometry">
            <mxPoint x="60" y="546.5" as="sourcePoint" />
            <mxPoint x="680" y="549.5" as="targetPoint" />
          </mxGeometry>
        </mxCell>
        <mxCell id="2IVX20pnwpZ9648MfqDt-206" value="" style="endArrow=none;html=1;rounded=0;dashed=1;" edge="1" parent="1">
          <mxGeometry width="50" height="50" relative="1" as="geometry">
            <mxPoint x="50" y="688.5" as="sourcePoint" />
            <mxPoint x="670" y="691.5" as="targetPoint" />
          </mxGeometry>
        </mxCell>
        <mxCell id="2IVX20pnwpZ9648MfqDt-230" style="edgeStyle=orthogonalEdgeStyle;rounded=0;orthogonalLoop=1;jettySize=auto;html=1;exitX=0.5;exitY=1;exitDx=0;exitDy=0;" edge="1" parent="1" source="2IVX20pnwpZ9648MfqDt-218" target="2IVX20pnwpZ9648MfqDt-219">
          <mxGeometry relative="1" as="geometry" />
        </mxCell>
        <mxCell id="2IVX20pnwpZ9648MfqDt-218" value="开始" style="ellipse;whiteSpace=wrap;html=1;aspect=fixed;" vertex="1" parent="1">
          <mxGeometry x="194" y="912" width="80" height="80" as="geometry" />
        </mxCell>
        <mxCell id="2IVX20pnwpZ9648MfqDt-231" style="edgeStyle=orthogonalEdgeStyle;rounded=0;orthogonalLoop=1;jettySize=auto;html=1;exitX=0.5;exitY=1;exitDx=0;exitDy=0;entryX=0.5;entryY=0;entryDx=0;entryDy=0;" edge="1" parent="1" source="2IVX20pnwpZ9648MfqDt-219" target="2IVX20pnwpZ9648MfqDt-223">
          <mxGeometry relative="1" as="geometry" />
        </mxCell>
        <mxCell id="2IVX20pnwpZ9648MfqDt-240" value="NO" style="edgeLabel;html=1;align=center;verticalAlign=middle;resizable=0;points=[];" vertex="1" connectable="0" parent="2IVX20pnwpZ9648MfqDt-231">
          <mxGeometry x="-0.2778" y="1" relative="1" as="geometry">
            <mxPoint as="offset" />
          </mxGeometry>
        </mxCell>
        <mxCell id="2IVX20pnwpZ9648MfqDt-238" style="edgeStyle=orthogonalEdgeStyle;rounded=0;orthogonalLoop=1;jettySize=auto;html=1;exitX=1;exitY=0.5;exitDx=0;exitDy=0;entryX=0.5;entryY=0;entryDx=0;entryDy=0;" edge="1" parent="1" source="2IVX20pnwpZ9648MfqDt-219" target="2IVX20pnwpZ9648MfqDt-221">
          <mxGeometry relative="1" as="geometry" />
        </mxCell>
        <mxCell id="2IVX20pnwpZ9648MfqDt-239" value="YES" style="edgeLabel;html=1;align=center;verticalAlign=middle;resizable=0;points=[];" vertex="1" connectable="0" parent="2IVX20pnwpZ9648MfqDt-238">
          <mxGeometry x="-0.8054" y="5" relative="1" as="geometry">
            <mxPoint as="offset" />
          </mxGeometry>
        </mxCell>
        <mxCell id="2IVX20pnwpZ9648MfqDt-219" value="from+size &amp;lt; 10000" style="rhombus;whiteSpace=wrap;html=1;" vertex="1" parent="1">
          <mxGeometry x="169" y="1034" width="130" height="80" as="geometry" />
        </mxCell>
        <mxCell id="2IVX20pnwpZ9648MfqDt-245" style="edgeStyle=orthogonalEdgeStyle;rounded=0;orthogonalLoop=1;jettySize=auto;html=1;exitX=0.5;exitY=1;exitDx=0;exitDy=0;entryX=1;entryY=0.5;entryDx=0;entryDy=0;" edge="1" parent="1" source="2IVX20pnwpZ9648MfqDt-221" target="2IVX20pnwpZ9648MfqDt-222">
          <mxGeometry relative="1" as="geometry" />
        </mxCell>
        <mxCell id="2IVX20pnwpZ9648MfqDt-221" value="使用from + size访问数据" style="rounded=0;whiteSpace=wrap;html=1;" vertex="1" parent="1">
          <mxGeometry x="370" y="1672" width="120" height="60" as="geometry" />
        </mxCell>
        <mxCell id="2IVX20pnwpZ9648MfqDt-222" value="结束" style="ellipse;whiteSpace=wrap;html=1;aspect=fixed;" vertex="1" parent="1">
          <mxGeometry x="194.5" y="1790" width="80" height="80" as="geometry" />
        </mxCell>
        <mxCell id="2IVX20pnwpZ9648MfqDt-232" style="edgeStyle=orthogonalEdgeStyle;rounded=0;orthogonalLoop=1;jettySize=auto;html=1;exitX=0.5;exitY=1;exitDx=0;exitDy=0;" edge="1" parent="1" source="2IVX20pnwpZ9648MfqDt-223" target="2IVX20pnwpZ9648MfqDt-224">
          <mxGeometry relative="1" as="geometry" />
        </mxCell>
        <mxCell id="2IVX20pnwpZ9648MfqDt-223" value="获取区间(start, end)" style="rounded=0;whiteSpace=wrap;html=1;" vertex="1" parent="1">
          <mxGeometry x="159" y="1150" width="150" height="60" as="geometry" />
        </mxCell>
        <mxCell id="2IVX20pnwpZ9648MfqDt-233" style="edgeStyle=orthogonalEdgeStyle;rounded=0;orthogonalLoop=1;jettySize=auto;html=1;exitX=0.5;exitY=1;exitDx=0;exitDy=0;" edge="1" parent="1" source="2IVX20pnwpZ9648MfqDt-224" target="2IVX20pnwpZ9648MfqDt-225">
          <mxGeometry relative="1" as="geometry" />
        </mxCell>
        <mxCell id="2IVX20pnwpZ9648MfqDt-224" value="拆分区间，并获取每个区间的数量" style="rounded=0;whiteSpace=wrap;html=1;" vertex="1" parent="1">
          <mxGeometry x="159" y="1250" width="150" height="60" as="geometry" />
        </mxCell>
        <mxCell id="2IVX20pnwpZ9648MfqDt-234" style="edgeStyle=orthogonalEdgeStyle;rounded=0;orthogonalLoop=1;jettySize=auto;html=1;exitX=0.5;exitY=1;exitDx=0;exitDy=0;" edge="1" parent="1" source="2IVX20pnwpZ9648MfqDt-225" target="2IVX20pnwpZ9648MfqDt-226">
          <mxGeometry relative="1" as="geometry" />
        </mxCell>
        <mxCell id="2IVX20pnwpZ9648MfqDt-225" value="定位from所在&lt;br&gt;区间(s&lt;sub&gt;i&lt;/sub&gt;&lt;span style=&quot;font-size: 10px;&quot;&gt;, e&lt;sub&gt;i&lt;/sub&gt;&lt;/span&gt;)" style="rounded=0;whiteSpace=wrap;html=1;" vertex="1" parent="1">
          <mxGeometry x="159.5" y="1360" width="150" height="60" as="geometry" />
        </mxCell>
        <mxCell id="2IVX20pnwpZ9648MfqDt-235" style="edgeStyle=orthogonalEdgeStyle;rounded=0;orthogonalLoop=1;jettySize=auto;html=1;exitX=0.5;exitY=1;exitDx=0;exitDy=0;" edge="1" parent="1" source="2IVX20pnwpZ9648MfqDt-226" target="2IVX20pnwpZ9648MfqDt-227">
          <mxGeometry relative="1" as="geometry" />
        </mxCell>
        <mxCell id="2IVX20pnwpZ9648MfqDt-226" value="使用区间(s&lt;sub style=&quot;border-color: var(--border-color);&quot;&gt;i&lt;/sub&gt;, e&lt;sub style=&quot;border-color: var(--border-color);&quot;&gt;i&lt;/sub&gt;)或&lt;br&gt;与(s&lt;sub style=&quot;border-color: var(--border-color);&quot;&gt;i+1&lt;/sub&gt;, e&lt;sub style=&quot;border-color: var(--border-color);&quot;&gt;i+1&lt;/sub&gt;)合并，新区间的数据量为num&lt;sub&gt;new&lt;/sub&gt;" style="rounded=0;whiteSpace=wrap;html=1;" vertex="1" parent="1">
          <mxGeometry x="160" y="1460" width="150" height="60" as="geometry" />
        </mxCell>
        <mxCell id="2IVX20pnwpZ9648MfqDt-236" style="edgeStyle=orthogonalEdgeStyle;rounded=0;orthogonalLoop=1;jettySize=auto;html=1;exitX=0;exitY=0.5;exitDx=0;exitDy=0;entryX=0;entryY=0.5;entryDx=0;entryDy=0;" edge="1" parent="1" source="2IVX20pnwpZ9648MfqDt-227" target="2IVX20pnwpZ9648MfqDt-224">
          <mxGeometry relative="1" as="geometry">
            <Array as="points">
              <mxPoint x="90" y="1600" />
              <mxPoint x="90" y="1280" />
            </Array>
          </mxGeometry>
        </mxCell>
        <mxCell id="2IVX20pnwpZ9648MfqDt-237" value="NO" style="edgeLabel;html=1;align=center;verticalAlign=middle;resizable=0;points=[];" vertex="1" connectable="0" parent="2IVX20pnwpZ9648MfqDt-236">
          <mxGeometry x="-0.774" y="4" relative="1" as="geometry">
            <mxPoint as="offset" />
          </mxGeometry>
        </mxCell>
        <mxCell id="2IVX20pnwpZ9648MfqDt-242" style="edgeStyle=orthogonalEdgeStyle;rounded=0;orthogonalLoop=1;jettySize=auto;html=1;exitX=0.5;exitY=1;exitDx=0;exitDy=0;entryX=0.5;entryY=0;entryDx=0;entryDy=0;" edge="1" parent="1" source="2IVX20pnwpZ9648MfqDt-227" target="2IVX20pnwpZ9648MfqDt-241">
          <mxGeometry relative="1" as="geometry" />
        </mxCell>
        <mxCell id="2IVX20pnwpZ9648MfqDt-227" value="num&lt;sub&gt;new&lt;/sub&gt; &amp;lt; 10000" style="rhombus;whiteSpace=wrap;html=1;" vertex="1" parent="1">
          <mxGeometry x="170" y="1560" width="130" height="80" as="geometry" />
        </mxCell>
        <mxCell id="2IVX20pnwpZ9648MfqDt-243" style="edgeStyle=orthogonalEdgeStyle;rounded=0;orthogonalLoop=1;jettySize=auto;html=1;exitX=1;exitY=0.5;exitDx=0;exitDy=0;entryX=0;entryY=0.5;entryDx=0;entryDy=0;" edge="1" parent="1" source="2IVX20pnwpZ9648MfqDt-241" target="2IVX20pnwpZ9648MfqDt-221">
          <mxGeometry relative="1" as="geometry" />
        </mxCell>
        <mxCell id="2IVX20pnwpZ9648MfqDt-244" style="edgeStyle=orthogonalEdgeStyle;rounded=0;orthogonalLoop=1;jettySize=auto;html=1;exitX=0.5;exitY=1;exitDx=0;exitDy=0;" edge="1" parent="1" source="2IVX20pnwpZ9648MfqDt-241" target="2IVX20pnwpZ9648MfqDt-222">
          <mxGeometry relative="1" as="geometry" />
        </mxCell>
        <mxCell id="2IVX20pnwpZ9648MfqDt-241" value="计算区间内的from&lt;sub&gt;new&lt;/sub&gt;,&lt;br&gt;from = from&lt;sub&gt;new&lt;/sub&gt;&amp;nbsp;" style="rounded=0;whiteSpace=wrap;html=1;" vertex="1" parent="1">
          <mxGeometry x="160" y="1672" width="150" height="60" as="geometry" />
        </mxCell>
        <mxCell id="2IVX20pnwpZ9648MfqDt-247" style="edgeStyle=orthogonalEdgeStyle;rounded=0;orthogonalLoop=1;jettySize=auto;html=1;exitX=0.5;exitY=1;exitDx=0;exitDy=0;entryX=1;entryY=0;entryDx=0;entryDy=0;" edge="1" parent="1" source="2IVX20pnwpZ9648MfqDt-248">
          <mxGeometry relative="1" as="geometry">
            <mxPoint x="234" y="748.5" as="targetPoint" />
          </mxGeometry>
        </mxCell>
        <mxCell id="2IVX20pnwpZ9648MfqDt-248" value="from" style="text;html=1;strokeColor=none;fillColor=none;align=center;verticalAlign=middle;whiteSpace=wrap;rounded=0;" vertex="1" parent="1">
          <mxGeometry x="204" y="697.5" width="60" height="20" as="geometry" />
        </mxCell>
        <mxCell id="2IVX20pnwpZ9648MfqDt-249" style="edgeStyle=orthogonalEdgeStyle;rounded=0;orthogonalLoop=1;jettySize=auto;html=1;exitX=0.5;exitY=1;exitDx=0;exitDy=0;entryX=1;entryY=0;entryDx=0;entryDy=0;" edge="1" parent="1" source="2IVX20pnwpZ9648MfqDt-250">
          <mxGeometry relative="1" as="geometry">
            <mxPoint x="300" y="747.5" as="targetPoint" />
            <mxPoint x="300" y="727.5" as="sourcePoint" />
          </mxGeometry>
        </mxCell>
        <mxCell id="2IVX20pnwpZ9648MfqDt-250" value="end" style="text;html=1;strokeColor=none;fillColor=none;align=center;verticalAlign=middle;whiteSpace=wrap;rounded=0;" vertex="1" parent="1">
          <mxGeometry x="270" y="698.5" width="60" height="20" as="geometry" />
        </mxCell>
        <mxCell id="2IVX20pnwpZ9648MfqDt-252" value="" style="rounded=0;whiteSpace=wrap;html=1;fillColor=none;" vertex="1" parent="1">
          <mxGeometry x="234" y="732.5" width="66" height="16" as="geometry" />
        </mxCell>
        <mxCell id="2IVX20pnwpZ9648MfqDt-254" value="size" style="text;html=1;strokeColor=none;fillColor=none;align=center;verticalAlign=middle;whiteSpace=wrap;rounded=0;" vertex="1" parent="1">
          <mxGeometry x="250" y="728.5" width="30" height="20" as="geometry" />
        </mxCell>
      </root>
    </mxGraphModel>
  </diagram>
</mxfile>
